<svg width="158" height="25" viewBox="0 0 158 25" fill="none" xmlns="http://www.w3.org/2000/svg">
<path d="M23.1532 20.6943H31.1483L11.3428 0.888672H3.34766L23.1532 20.6943Z" fill="white"/>
<path d="M15.4492 0.888673L34.5414 19.9809V0.888672H29.3747V6.91644L23.3469 0.888672L15.4492 0.888673Z" fill="white"/>
<path d="M0 1.55176V20.6942H5.16667V14.6664L11.1944 20.6942H19.1425L0 1.55176Z" fill="white"/>
<path d="M51.0106 15.7165H55.6399V18.4445H47.4766V3.93652H51.0106V15.7165Z" fill="white"/>
<path d="M61.9559 18.6098C60.8261 18.6098 59.8065 18.3687 58.8972 17.8864C58.0016 17.4042 57.2921 16.7153 56.7685 15.8198C56.2588 14.9242 56.0039 13.8771 56.0039 12.6784C56.0039 11.4936 56.2656 10.4533 56.7892 9.55776C57.3128 8.64836 58.0292 7.95262 58.9385 7.4704C59.8479 6.98818 60.8674 6.74707 61.9972 6.74707C63.127 6.74707 64.1465 6.98818 65.0559 7.4704C65.9652 7.95262 66.6816 8.64836 67.2052 9.55776C67.7288 10.4533 67.9905 11.4936 67.9905 12.6784C67.9905 13.8633 67.7219 14.9104 67.1845 15.8198C66.661 16.7153 65.9376 17.4042 65.0145 17.8864C64.1052 18.3687 63.0856 18.6098 61.9559 18.6098ZM61.9559 15.5511C62.631 15.5511 63.2028 15.3031 63.6712 14.8071C64.1534 14.3111 64.3945 13.6016 64.3945 12.6784C64.3945 11.7553 64.1603 11.0458 63.6919 10.5498C63.2372 10.0538 62.6723 9.80576 61.9972 9.80576C61.3083 9.80576 60.7365 10.0538 60.2819 10.5498C59.8272 11.032 59.5999 11.7416 59.5999 12.6784C59.5999 13.6016 59.8203 14.3111 60.2612 14.8071C60.7159 15.3031 61.2808 15.5511 61.9559 15.5511Z" fill="white"/>
<path d="M73.6231 6.74707C74.436 6.74707 75.1456 6.9124 75.7518 7.24307C76.3718 7.57374 76.8471 8.00776 77.1778 8.54506V6.9124H80.7118V18.4238C80.7118 19.4847 80.4982 20.4422 80.0711 21.2964C79.6578 22.1644 79.0171 22.8533 78.1491 23.3631C77.2949 23.8729 76.2271 24.1278 74.9458 24.1278C73.2373 24.1278 71.8527 23.7213 70.7918 22.9084C69.7309 22.1093 69.1247 21.0209 68.9731 19.6431H72.4658C72.576 20.084 72.8378 20.4284 73.2511 20.6764C73.6645 20.9382 74.1742 21.0691 74.7805 21.0691C75.5107 21.0691 76.0893 20.8556 76.5165 20.4284C76.9573 20.0151 77.1778 19.3469 77.1778 18.4238V16.7911C76.8333 17.3284 76.358 17.7693 75.7518 18.1138C75.1456 18.4444 74.436 18.6098 73.6231 18.6098C72.6725 18.6098 71.8113 18.3687 71.0398 17.8864C70.2682 17.3904 69.6551 16.6947 69.2005 15.7991C68.7596 14.8898 68.5391 13.8427 68.5391 12.6578C68.5391 11.4729 68.7596 10.4327 69.2005 9.53706C69.6551 8.64156 70.2682 7.95262 71.0398 7.4704C71.8113 6.98818 72.6725 6.74707 73.6231 6.74707ZM77.1778 12.6784C77.1778 11.7967 76.9298 11.1009 76.4338 10.5911C75.9516 10.0813 75.3591 9.82636 74.6565 9.82636C73.9538 9.82636 73.3545 10.0813 72.8585 10.5911C72.3762 11.0871 72.1351 11.776 72.1351 12.6578C72.1351 13.5396 72.3762 14.2422 72.8585 14.7658C73.3545 15.2756 73.9538 15.5304 74.6565 15.5304C75.3591 15.5304 75.9516 15.2756 76.4338 14.7658C76.9298 14.256 77.1778 13.5602 77.1778 12.6784Z" fill="white"/>
<path d="M87.9012 18.6098C86.7714 18.6098 85.7519 18.3687 84.8425 17.8864C83.947 17.4042 83.2374 16.7153 82.7139 15.8198C82.2041 14.9242 81.9492 13.8771 81.9492 12.6784C81.9492 11.4936 82.211 10.4533 82.7345 9.55776C83.2581 8.64836 83.9745 7.95262 84.8839 7.4704C85.7932 6.98818 86.8128 6.74707 87.9425 6.74707C89.0723 6.74707 90.0919 6.98818 91.0012 7.4704C91.9105 7.95262 92.627 8.64836 93.1505 9.55776C93.6741 10.4533 93.9359 11.4936 93.9359 12.6784C93.9359 13.8633 93.6672 14.9104 93.1299 15.8198C92.6063 16.7153 91.883 17.4042 90.9599 17.8864C90.0505 18.3687 89.031 18.6098 87.9012 18.6098ZM87.9012 15.5511C88.5763 15.5511 89.1481 15.3031 89.6165 14.8071C90.0988 14.3111 90.3399 13.6016 90.3399 12.6784C90.3399 11.7553 90.1057 11.0458 89.6372 10.5498C89.1825 10.0538 88.6177 9.80576 87.9425 9.80576C87.2537 9.80576 86.6819 10.0538 86.2272 10.5498C85.7725 11.032 85.5452 11.7416 85.5452 12.6784C85.5452 13.6016 85.7657 14.3111 86.2065 14.8071C86.6612 15.3031 87.2261 15.5511 87.9012 15.5511Z" fill="white"/>
<path d="M96.9674 5.71396C96.3474 5.71396 95.8376 5.53484 95.438 5.17662C95.0523 4.80462 94.8594 4.34996 94.8594 3.81262C94.8594 3.26151 95.0523 2.80685 95.438 2.44863C95.8376 2.07663 96.3474 1.89062 96.9674 1.89062C97.5736 1.89062 98.0696 2.07663 98.4554 2.44863C98.8549 2.80685 99.0547 3.26151 99.0547 3.81262C99.0547 4.34996 98.8549 4.80462 98.4554 5.17662C98.0696 5.53484 97.5736 5.71396 96.9674 5.71396ZM98.724 6.91263V18.4446H95.19V6.91263H98.724Z" fill="white"/>
<path d="M104.198 8.54506C104.543 8.00776 105.018 7.57374 105.624 7.24307C106.23 6.9124 106.94 6.74707 107.753 6.74707C108.704 6.74707 109.565 6.98818 110.336 7.4704C111.108 7.95262 111.714 8.64156 112.155 9.53706C112.61 10.4327 112.837 11.4729 112.837 12.6578C112.837 13.8427 112.61 14.8898 112.155 15.7991C111.714 16.6947 111.108 17.3904 110.336 17.8864C109.565 18.3687 108.704 18.6098 107.753 18.6098C106.954 18.6098 106.244 18.4444 105.624 18.1138C105.018 17.7831 104.543 17.356 104.198 16.8324V23.9418H100.664V6.9124H104.198V8.54506ZM109.241 12.6578C109.241 11.776 108.993 11.0871 108.497 10.5911C108.015 10.0813 107.415 9.82636 106.699 9.82636C105.996 9.82636 105.397 10.0813 104.901 10.5911C104.419 11.1009 104.178 11.7967 104.178 12.6784C104.178 13.5602 104.419 14.256 104.901 14.7658C105.397 15.2756 105.996 15.5304 106.699 15.5304C107.402 15.5304 108.001 15.2756 108.497 14.7658C108.993 14.2422 109.241 13.5396 109.241 12.6578Z" fill="white"/>
<path d="M118.76 18.6098C117.754 18.6098 116.859 18.4376 116.074 18.0931C115.288 17.7487 114.668 17.2802 114.214 16.6878C113.759 16.0816 113.504 15.4064 113.449 14.6624H116.942C116.983 15.062 117.169 15.3858 117.5 15.6338C117.83 15.8818 118.237 16.0058 118.719 16.0058C119.16 16.0058 119.497 15.9231 119.732 15.7578C119.98 15.5787 120.104 15.3513 120.104 15.0758C120.104 14.7451 119.931 14.504 119.587 14.3524C119.242 14.1871 118.684 14.008 117.913 13.8151C117.086 13.6222 116.397 13.4224 115.846 13.2158C115.295 12.9953 114.82 12.6578 114.42 12.2031C114.021 11.7347 113.821 11.1078 113.821 10.3224C113.821 9.66106 114 9.06176 114.358 8.52436C114.73 7.97329 115.268 7.53929 115.97 7.2224C116.687 6.90551 117.534 6.74707 118.512 6.74707C119.959 6.74707 121.096 7.10529 121.922 7.82174C122.763 8.53816 123.245 9.48886 123.369 10.6738H120.104C120.048 10.2742 119.869 9.95726 119.566 9.72306C119.277 9.48886 118.891 9.37176 118.409 9.37176C117.996 9.37176 117.679 9.45436 117.458 9.61976C117.238 9.77126 117.128 9.98486 117.128 10.2604C117.128 10.5911 117.3 10.8391 117.644 11.0044C118.002 11.1698 118.554 11.3351 119.298 11.5004C120.152 11.7209 120.848 11.9413 121.385 12.1618C121.922 12.3684 122.391 12.7129 122.79 13.1951C123.204 13.6636 123.417 14.2973 123.431 15.0964C123.431 15.7716 123.238 16.3778 122.852 16.9151C122.48 17.4387 121.936 17.852 121.22 18.1551C120.517 18.4582 119.697 18.6098 118.76 18.6098Z" fill="white"/>
<path d="M136.361 6.9126V18.4446H132.827V16.874C132.469 17.3838 131.98 17.7971 131.36 18.114C130.754 18.4171 130.079 18.5686 129.335 18.5686C128.453 18.5686 127.674 18.3758 126.999 17.99C126.324 17.5904 125.801 17.0186 125.429 16.2746C125.057 15.5306 124.871 14.6558 124.871 13.65V6.9126H128.384V13.1746C128.384 13.9462 128.584 14.5455 128.983 14.9726C129.383 15.3998 129.92 15.6133 130.595 15.6133C131.284 15.6133 131.828 15.3998 132.228 14.9726C132.628 14.5455 132.827 13.9462 132.827 13.1746V6.9126H136.361Z" fill="white"/>
<path d="M152.995 6.78857C154.428 6.78857 155.565 7.22257 156.405 8.09053C157.26 8.95853 157.687 10.1641 157.687 11.7072V18.4445H154.173V12.1825C154.173 11.4385 153.974 10.8668 153.574 10.4672C153.188 10.0539 152.651 9.84723 151.962 9.84723C151.273 9.84723 150.729 10.0539 150.329 10.4672C149.944 10.8668 149.751 11.4385 149.751 12.1825V18.4445H146.237V12.1825C146.237 11.4385 146.038 10.8668 145.638 10.4672C145.252 10.0539 144.715 9.84723 144.026 9.84723C143.337 9.84723 142.793 10.0539 142.393 10.4672C142.008 10.8668 141.815 11.4385 141.815 12.1825V18.4445H138.281V6.91257H141.815V8.35923C142.173 7.87702 142.641 7.49813 143.22 7.22257C143.799 6.93324 144.453 6.78857 145.183 6.78857C146.051 6.78857 146.823 6.97457 147.498 7.34657C148.187 7.71857 148.724 8.24903 149.11 8.93793C149.51 8.30413 150.054 7.78746 150.743 7.38791C151.432 6.98835 152.183 6.78857 152.995 6.78857Z" fill="white"/>
</svg>
