<svg width="1500" height="1000" viewBox="0 0 1500 1000" fill="none" xmlns="http://www.w3.org/2000/svg">
<path d="M1000 500C1000 776.142 776.142 1000 500 1000C223.858 1000 0 776.142 0 500C0 223.858 223.858 0 500 0C776.142 0 1000 223.858 1000 500ZM50 500C50 748.528 251.472 950 500 950C748.528 950 950 748.528 950 500C950 251.472 748.528 50 500 50C251.472 50 50 251.472 50 500Z" fill="#303030"/>
<path d="M1500 500C1500 776.142 1276.14 1000 1000 1000C723.858 1000 500 776.142 500 500C500 223.858 723.858 0 1000 0C1276.14 0 1500 223.858 1500 500ZM550 500C550 748.528 751.472 950 1000 950C1248.53 950 1450 748.528 1450 500C1450 251.472 1248.53 50 1000 50C751.472 50 550 251.472 550 500Z" fill="#303030"/>
</svg>
